<?xml version="1.0" standalone="no"?>
<!DOCTYPE svg PUBLIC "-//W3C//DTD SVG 20010904//EN"
 "http://www.w3.org/TR/2001/REC-SVG-20010904/DTD/svg10.dtd">
<svg version="1.0" xmlns="http://www.w3.org/2000/svg"
 width="512.000000pt" height="512.000000pt" viewBox="0 0 512.000000 512.000000"
 preserveAspectRatio="xMidYMid meet">

<g transform="translate(0.000000,512.000000) scale(0.100000,-0.100000)"
fill="#000000" stroke="none">
<path d="M3115 5025 c-252 -46 -474 -193 -610 -404 -88 -135 -121 -274 -96
-406 15 -81 45 -122 116 -159 61 -32 71 -44 135 -157 59 -106 139 -146 262
-135 234 21 368 182 371 446 2 138 -11 219 -38 246 -32 32 -78 32 -111 -1 -25
-25 -25 -28 -17 -103 30 -277 -35 -407 -211 -428 -73 -9 -93 5 -144 99 -56
101 -83 132 -147 162 -47 22 -55 30 -61 61 -22 116 33 256 149 380 147 158
317 239 523 251 258 15 452 -101 518 -311 15 -48 26 -63 70 -95 79 -60 150
-91 276 -122 147 -37 163 -55 119 -141 -56 -111 -169 -183 -309 -200 -222 -26
-279 -45 -337 -112 -66 -74 -68 -151 -8 -311 61 -163 82 -204 109 -216 28 -13
68 -6 90 17 32 31 30 61 -12 162 -56 137 -75 199 -68 226 9 36 66 57 180 67
190 16 298 61 402 165 142 142 172 299 77 405 -48 53 -72 64 -184 89 -102 22
-237 82 -246 108 -2 10 -21 51 -41 92 -75 158 -252 291 -435 325 -94 18 -226
18 -322 0z"/>
<path d="M2615 3690 c-32 -12 -40 -27 -98 -170 -97 -242 -220 -469 -366 -675
-79 -111 -86 -141 -46 -180 25 -26 63 -32 94 -16 22 12 148 192 232 331 115
192 289 577 289 640 0 24 -51 80 -72 79 -7 0 -22 -4 -33 -9z"/>
<path d="M3975 3344 c-219 -38 -375 -136 -454 -283 -56 -106 -71 -188 -81
-456 -14 -394 -25 -413 -365 -605 -199 -112 -359 -225 -468 -329 l-98 -94 41
70 c82 143 104 257 76 403 -25 135 -80 238 -179 335 -90 88 -167 133 -278 161
-223 57 -549 -108 -583 -296 -10 -56 18 -132 61 -170 34 -30 40 -32 97 -28 45
3 89 17 171 53 172 77 253 68 297 -33 12 -26 23 -76 26 -112 4 -60 1 -71 -31
-133 -20 -37 -99 -163 -176 -281 -216 -328 -266 -441 -266 -591 1 -78 5 -101
34 -170 98 -241 375 -527 584 -604 56 -20 72 -21 573 -21 l515 0 24 25 25 24
25 -24 24 -25 260 0 c172 0 268 4 285 11 54 25 57 102 8 212 -38 86 -107 141
-219 173 -33 9 -44 187 -18 289 29 113 61 162 200 305 196 202 230 283 229
550 -1 214 -42 427 -105 552 -11 21 -19 40 -19 43 0 3 30 5 68 5 156 1 285 33
337 85 68 69 56 149 -45 290 -66 94 -67 96 -73 174 -10 131 -52 199 -149 241
-27 11 -46 25 -43 30 3 4 12 43 21 85 18 88 10 125 -32 144 -34 15 -201 12
-299 -5z m165 -153 c0 -19 -24 -78 -42 -100 -23 -30 -23 -72 1 -102 14 -18 33
-24 88 -30 39 -4 80 -13 92 -21 27 -17 41 -59 41 -127 0 -66 26 -128 92 -217
74 -99 75 -101 31 -114 -21 -6 -106 -14 -190 -17 -169 -6 -196 -15 -233 -75
-28 -47 -26 -66 25 -165 120 -237 151 -616 64 -792 -24 -49 -58 -91 -129 -161
-156 -154 -195 -213 -242 -360 -34 -109 -33 -295 1 -394 29 -84 57 -116 103
-116 43 -1 113 -33 128 -59 11 -21 10 -21 -139 -21 -148 0 -151 0 -155 23 -2
12 -9 54 -16 92 -25 157 -51 205 -110 205 -29 0 -65 -29 -75 -60 -3 -11 3 -57
14 -102 11 -46 22 -110 25 -143 l6 -60 -19 57 c-22 68 -50 111 -104 159 l-40
37 21 29 c72 101 126 261 138 406 9 115 -13 157 -82 157 -48 0 -70 -37 -77
-130 -14 -176 -69 -309 -174 -416 -49 -51 -63 -72 -63 -95 0 -40 40 -79 79
-79 52 0 131 -43 131 -72 0 -4 -197 -8 -437 -8 l-438 0 -53 25 c-74 34 -154
98 -253 202 -94 100 -145 171 -190 268 -79 167 -45 267 222 670 205 310 236
390 210 541 -23 128 -87 224 -181 268 -35 16 -64 21 -130 20 -74 0 -95 -4
-160 -33 -154 -67 -171 -74 -176 -68 -13 13 31 70 79 102 78 51 159 77 247 79
66 1 83 -3 142 -32 167 -82 283 -282 265 -458 -7 -67 -58 -175 -138 -291 -251
-364 -295 -439 -324 -549 -49 -188 38 -380 213 -468 36 -18 55 -36 69 -63 31
-65 108 -71 138 -12 15 28 15 37 0 107 -23 106 -31 304 -16 398 51 310 244
547 634 775 67 40 169 99 227 133 173 100 258 203 295 358 10 39 19 152 25
298 6 153 15 256 25 294 37 142 110 219 259 273 84 30 256 54 256 34z m-1815
-1914 c-47 -107 -66 -203 -72 -356 l-6 -145 -33 36 c-61 68 -69 171 -21 280
27 60 147 252 153 245 3 -2 -7 -29 -21 -60z"/>
<path d="M1107 2574 c-261 -47 -518 -200 -652 -388 -263 -372 -240 -897 57
-1298 61 -82 205 -230 263 -269 22 -15 37 -37 45 -64 55 -182 201 -312 411
-366 77 -20 116 -22 441 -26 l357 -5 26 26 c30 30 33 74 6 107 l-19 24 -354 6
c-380 7 -426 12 -529 64 -101 52 -158 123 -193 246 -15 51 -23 61 -97 119
-202 159 -343 370 -406 608 -22 82 -26 118 -26 237 0 167 19 252 88 391 76
155 198 269 378 354 129 60 137 59 56 -12 -225 -195 -359 -471 -359 -738 0
-159 41 -268 143 -376 l60 -65 -2 -59 c-3 -84 25 -129 82 -130 16 0 38 10 50
23 21 20 24 38 35 188 17 237 52 359 149 522 64 109 175 220 286 288 94 56
117 79 117 116 0 35 -42 76 -78 76 -38 0 -169 -76 -260 -153 -160 -134 -301
-384 -350 -620 l-9 -45 -29 60 c-23 50 -29 76 -32 156 -14 322 212 641 572
810 47 22 90 48 96 59 43 81 -51 152 -198 149 -26 0 -82 -7 -125 -15z"/>
</g>
</svg>
